<svg width="67" height="66" viewBox="0 0 67 66" fill="none" xmlns="http://www.w3.org/2000/svg">
<path d="M40.2187 49.0746H10.9054V35.0625C10.9054 30.0996 14.9273 26.0777 19.8902 26.0777H40.2187V49.0746Z" fill="#CEE8FA"/>
<path d="M40.2187 50.9437H10.9054C9.87415 50.9437 9.03625 50.1059 9.03625 49.0746V35.0625C9.03625 29.0812 13.9089 24.2086 19.8902 24.2086H40.2187C41.2499 24.2086 42.0878 25.0465 42.0878 26.0777V49.0746C42.0878 50.1059 41.2499 50.9437 40.2187 50.9437ZM12.7745 47.2055H38.3366V27.9598H19.8773C15.9585 27.9598 12.7745 31.1437 12.7745 35.0625V47.2055Z" fill="#2D527C"/>
<path d="M59.5418 34.2633H6.4582C2.90039 34.2633 0 31.3629 0 27.7922V21.9785C0 18.4207 2.90039 15.5203 6.4582 15.5203H19.8258C20.857 15.5203 21.6949 16.3582 21.6949 17.3894C21.6949 18.4207 20.857 19.2586 19.8258 19.2586H6.4582C4.96289 19.2586 3.73828 20.4832 3.73828 21.9785V27.7922C3.73828 29.2875 4.96289 30.5121 6.4582 30.5121H59.5289C61.0242 30.5121 62.2488 29.2875 62.2488 27.7922V21.9785C62.2488 20.4832 61.0242 19.2586 59.5289 19.2586H33C31.9688 19.2586 31.1309 18.4207 31.1309 17.3894C31.1309 16.3582 31.9688 15.5203 33 15.5203H59.5418C63.0996 15.5203 66 18.4207 66 21.9785V27.7922C66 31.3629 63.0996 34.2633 59.5418 34.2633Z" fill="#F0BF5F"/>
<path d="M32.9999 19.1555C32.4198 19.1555 31.8656 18.8977 31.4917 18.3949C30.873 17.557 31.0534 16.384 31.8784 15.7781C33.6445 14.4633 37.3054 11.0086 37.3054 8.70117C37.3054 6.20039 35.4878 4.3957 32.9999 4.3957C30.6281 4.3957 28.6945 6.3293 28.6945 8.70117C28.6945 9.73242 27.8566 10.5703 26.8253 10.5703C25.7941 10.5703 24.9562 9.73242 24.9562 8.70117V8.53359C24.9562 8.48203 24.9562 8.43047 24.9691 8.37891C25.1238 4.07344 28.6687 0.644531 32.9999 0.644531C37.589 0.644531 41.0566 4.11211 41.0566 8.70117C41.0566 13.5223 34.8304 18.266 34.1085 18.7945C33.7734 19.0395 33.3866 19.1555 32.9999 19.1555Z" fill="#F0BF5F"/>
<path d="M46.8316 61.2562H22.043C21.0117 61.2562 20.1738 60.4183 20.1738 59.3871V49.0875C20.1738 48.0562 21.0117 47.2183 22.043 47.2183H55.1074C56.1387 47.2183 56.9766 48.0562 56.9766 49.0875C56.9766 50.1187 56.1387 50.9566 55.1074 50.9566H23.9121V57.5179H46.8316C47.8629 57.5179 48.7008 58.3558 48.7008 59.3871C48.7008 60.4183 47.8629 61.2562 46.8316 61.2562Z" fill="#2D527C"/>
<path d="M55.0945 49.0746V33.5672C55.0945 29.4293 51.743 26.0777 47.6051 26.0777H22.043V49.0746H55.0945Z" fill="#CEE8FA"/>
<path d="M55.0945 50.9437H22.043C21.0117 50.9437 20.1738 50.1059 20.1738 49.0746V26.0906C20.1738 25.0594 21.0117 24.2215 22.043 24.2215H47.618C52.7742 24.2215 56.9766 28.4238 56.9766 33.5801V49.0875C56.9766 50.1058 56.1258 50.9437 55.0945 50.9437ZM23.9121 47.2055H53.2254V33.5672C53.2254 30.4734 50.7117 27.9597 47.618 27.9597H23.9121V47.2055Z" fill="#2D527C"/>
<path d="M22.043 65.3554C21.0117 65.3554 20.1738 64.5175 20.1738 63.4863V59.3871C20.1738 58.3558 21.0117 57.5179 22.043 57.5179C23.0742 57.5179 23.9121 58.3558 23.9121 59.3871V63.4863C23.9121 64.5175 23.0742 65.3554 22.043 65.3554Z" fill="#2D527C"/>
<path d="M55.0946 65.3555C54.0634 65.3555 53.2255 64.5176 53.2255 63.4863V47.8758C53.2255 46.8445 54.0634 46.0067 55.0946 46.0067C56.1259 46.0067 56.9637 46.8445 56.9637 47.8758V63.4863C56.9766 64.5176 56.1259 65.3555 55.0946 65.3555Z" fill="#2D527C"/>
<path d="M46.8317 65.3554C45.8004 65.3554 44.9625 64.5175 44.9625 63.4863V59.3871C44.9625 58.3558 45.8004 57.5179 46.8317 57.5179C47.8629 57.5179 48.7008 58.3558 48.7008 59.3871V63.4863C48.7008 64.5175 47.8629 65.3554 46.8317 65.3554Z" fill="#2D527C"/>
<path d="M38.5687 65.3554C37.5375 65.3554 36.6996 64.5175 36.6996 63.4863V59.3871C36.6996 58.3558 37.5375 57.5179 38.5687 57.5179C39.6 57.5179 40.4379 58.3558 40.4379 59.3871V63.4863C40.4379 64.5175 39.6 65.3554 38.5687 65.3554Z" fill="#2D527C"/>
<path d="M30.3058 65.3554C29.2745 65.3554 28.4366 64.5175 28.4366 63.4863V59.3871C28.4366 58.3558 29.2745 57.5179 30.3058 57.5179C31.337 57.5179 32.1749 58.3558 32.1749 59.3871V63.4863C32.1749 64.5175 31.337 65.3554 30.3058 65.3554Z" fill="#2D527C"/>
</svg>
